<svg width="1080" height="266" viewBox="0 0 1080 266" fill="none" xmlns="http://www.w3.org/2000/svg">
<path d="M132.98 0.0200195V133H66.49C48.13 133 31.51 125.55 19.47 113.53C7.44 101.5 0 84.87 0 66.51C0 48.15 7.44 31.52 19.47 19.49C31.51 7.47002 48.13 0.0200195 66.49 0.0200195H132.98Z" fill="url(#paint0_linear_306_24)"/>
<path d="M265.96 66.51C265.96 93.25 250.18 116.3 227.42 126.85L132.98 0.0200195H199.47C217.83 0.0200195 234.45 7.47002 246.49 19.49C258.53 31.52 265.96 48.14 265.96 66.51Z" fill="url(#paint1_linear_306_24)"/>
<path d="M265.96 199.49C265.96 236.21 236.19 265.98 199.47 265.98H132.98V133H199.47C217.83 133 234.45 140.45 246.49 152.47C258.53 164.5 265.96 181.12 265.96 199.49Z" fill="url(#paint2_linear_306_24)"/>
<path d="M132.98 265.98H66.49C48.13 265.98 31.51 258.53 19.47 246.5C7.44 234.48 0 217.85 0 199.49C0 172.75 15.78 149.7 38.54 139.15L132.97 265.98H132.98Z" fill="url(#paint3_linear_306_24)"/>
<path d="M246.48 152.47C234.44 140.44 217.82 133 199.46 133H132.97V0.0200195L227.4 126.85L246.47 152.47H246.48Z" fill="url(#paint4_linear_306_24)"/>
<path d="M19.47 113.53C31.51 125.56 48.13 133 66.49 133H132.98V265.98L38.55 139.15L19.48 113.53H19.47Z" fill="url(#paint5_linear_306_24)"/>
<path d="M498.8 88.6699L513.28 144.12L528.1 88.6699H551.16L524.39 177.32H504.02L489.04 123.72L474.06 177.32H453.69L426.93 88.6699H450.83L465.81 144.12L480.29 88.6699H498.81H498.8Z" fill="#FFFFFF"/>
<path d="M544.01 152.72C544.01 135.02 558.15 127.61 576 124.4L598.05 120.19V117.96C598.05 111.1 594.17 105.65 584.42 105.65C575.67 105.65 571.78 110.42 570.34 116.82H548.2C549.93 100.02 563.34 86.9897 584.38 86.9897C606.77 86.9897 621.12 98.1497 621.12 118.71V154.07C621.12 158.79 623.14 160.3 628.53 159.64V177.34C613.38 179.53 604.29 176.5 600.42 169.08C594.69 175.31 585.78 178.86 574.16 178.86C556.82 178.86 544.03 168.41 544.03 152.74L544.01 152.72ZM598.05 136.71L580.71 140.25C572.97 141.77 567.24 144.3 567.24 151.37C567.24 157.44 571.78 160.97 578.86 160.97C588.79 160.97 598.05 155.75 598.05 145.8V136.7V136.71Z" fill="#FFFFFF"/>
<path d="M656.86 168.23V207.33H633.29V88.6797H656.86V97.7797C662.08 91.3697 670.49 86.9897 681.6 86.9897C706.01 86.9897 720.15 107.89 720.15 133C720.15 158.11 706.01 179.18 681.6 179.18C670.49 179.18 662.07 174.8 656.86 168.22V168.23ZM656.36 135.53C656.36 150.53 664.78 158.79 676.05 158.79C689.35 158.79 696.42 148.34 696.42 133C696.42 117.66 689.35 107.21 676.05 107.21C664.78 107.21 656.36 115.47 656.36 130.64V135.53Z" fill="#FFFFFF"/>
<path d="M803.49 150.02H831.1V177.32H803.49V150.02Z" fill="#FFFFFF"/>
<path d="M877.05 149.02L858.2 177.34H832.95L863.76 131.5L834.98 88.6899H861.24L877.91 114.14L894.74 88.6899H919.99L891.21 131.5L922.19 177.34H895.93L877.08 149.02H877.06H877.05Z" fill="#FFFFFF"/>
<path d="M938.7 208.17C934.16 208.17 932.47 208 929.44 207.66V188.61C931.97 188.78 933.48 188.94 936.17 188.94C942.4 188.94 945.76 187.25 948.29 180.85L951.15 173.77L919.34 88.6699H943.75L963.78 146.98L983.31 88.6699H1007.21L972.02 182.38C966.29 198.06 958.22 208.17 938.69 208.17H938.7Z" fill="#FFFFFF"/>
<path d="M1080 177.32H1006.26V159.96L1051.2 108.39H1007.63V88.6699H1079.47V106.2L1036.21 157.6H1079.98V177.32H1080Z" fill="#FFFFFF"/>
<path d="M354.61 148.34H376.06C377.59 158.39 384.74 162.82 395.12 162.82C405.5 162.82 411.12 158.91 411.12 152.77C411.12 144.42 400.05 143.57 388.14 141.18C372.48 138.11 357.16 133.85 357.16 114.77C357.16 95.6898 372.82 86.8198 392.73 86.8198C415.71 86.8198 428.48 98.2398 430.18 115.79H409.24C408.22 106.41 402.26 103.01 392.39 103.01C383.37 103.01 377.41 106.42 377.41 112.73C377.41 120.23 388.98 120.91 401.41 123.47C416.04 126.53 432.22 130.62 432.22 151.08C432.22 168.64 417.24 179.2 395.46 179.2C370.1 179.2 355.97 166.93 354.61 148.35V148.34Z" fill="#FFFFFF"/>
<path d="M722.73 148.34H744.18C745.71 158.39 752.86 162.82 763.24 162.82C773.62 162.82 779.24 158.91 779.24 152.77C779.24 144.42 768.18 143.57 756.26 141.18C740.6 138.12 725.28 133.85 725.28 114.77C725.28 95.6898 740.94 86.8198 760.85 86.8198C783.83 86.8198 796.6 98.2398 798.3 115.79H777.36C776.34 106.41 770.38 103.01 760.51 103.01C751.49 103.01 745.53 106.42 745.53 112.73C745.53 120.23 757.1 120.91 769.53 123.47C784.16 126.53 800.34 130.62 800.34 151.08C800.34 168.64 785.36 179.2 763.58 179.2C738.22 179.2 724.09 166.93 722.73 148.35V148.34Z" fill="#FFFFFF"/>
<defs>
<linearGradient id="paint0_linear_306_24" x1="66.49" y1="0.0200195" x2="66.49" y2="133" gradientUnits="userSpaceOnUse">
<stop stop-color="#D5A2FF"/>
<stop offset="0.5" stop-color="#4B68B3"/>
<stop offset="1" stop-color="#30001A"/>
</linearGradient>
<linearGradient id="paint1_linear_306_24" x1="199.47" y1="0.0200195" x2="199.47" y2="126.85" gradientUnits="userSpaceOnUse">
<stop stop-color="#D5A2FF"/>
<stop offset="0.5" stop-color="#4B68B3"/>
<stop offset="1" stop-color="#30001A"/>
</linearGradient>
<linearGradient id="paint2_linear_306_24" x1="199.47" y1="133" x2="199.47" y2="265.98" gradientUnits="userSpaceOnUse">
<stop stop-color="#30001A"/>
<stop offset="0.5" stop-color="#4B68B3"/>
<stop offset="1" stop-color="#D5A2FF"/>
</linearGradient>
<linearGradient id="paint3_linear_306_24" x1="66.49" y1="139.15" x2="66.49" y2="265.98" gradientUnits="userSpaceOnUse">
<stop stop-color="#30001A"/>
<stop offset="0.5" stop-color="#4B68B3"/>
<stop offset="1" stop-color="#D5A2FF"/>
</linearGradient>
<linearGradient id="paint4_linear_306_24" x1="196.7" y1="85.6736" x2="133.028" y2="133.067" gradientUnits="userSpaceOnUse">
<stop stop-color="#D5A2FF"/>
<stop offset="0.5" stop-color="#4B68B3"/>
<stop offset="1" stop-color="#30001A"/>
</linearGradient>
<linearGradient id="paint5_linear_306_24" x1="69.2504" y1="180.326" x2="132.922" y2="132.933" gradientUnits="userSpaceOnUse">
<stop stop-color="#D5A2FF"/>
<stop offset="0.5" stop-color="#4B68B3"/>
<stop offset="1" stop-color="#30001A"/>
</linearGradient>
</defs>
</svg>
